<svg width="200" height="42" viewBox="0 0 200 42" fill="none" xmlns="http://www.w3.org/2000/svg">
<path d="M97.337 1.77703L97.371 2.77645L97.337 1.77703ZM198.436 36.0451C198.98 35.9457 199.341 35.4247 199.244 34.8813L197.659 26.027C197.562 25.4836 197.042 25.1237 196.498 25.2231C195.955 25.3225 195.593 25.8435 195.69 26.3869L197.099 34.2574L189.226 35.6969C188.682 35.7963 188.32 36.3173 188.418 36.8607C188.515 37.404 189.034 37.7639 189.578 37.6645L198.436 36.0451ZM3.664 39.4997C4.06653 39.1201 4.08641 38.4871 3.7084 38.0858C3.33038 37.6846 2.69761 37.6672 2.29507 38.0468L3.664 39.4997ZM10.1797 31.6248C9.7304 31.9477 9.62649 32.5727 9.94758 33.0209C10.2687 33.4691 10.8932 33.5706 11.3424 33.2477L10.1797 31.6248ZM15.4499 30.4407C15.9134 30.1388 16.0459 29.519 15.7459 29.0565C15.4458 28.594 14.8267 28.4638 14.3632 28.7658L15.4499 30.4407ZM23.0439 23.5645C22.56 23.8324 22.3833 24.4412 22.6493 24.9242C22.9153 25.4073 23.5232 25.5817 24.0072 25.3137L23.0439 23.5645ZM28.4163 22.9592C28.9079 22.7058 29.1027 22.1026 28.8513 21.6117C28.5998 21.1209 27.9975 20.9284 27.5058 21.1818L28.4163 22.9592ZM36.6046 16.8C36.1003 17.0269 35.8738 17.6192 36.0988 18.1227C36.3238 18.6263 36.915 18.8506 37.4193 18.6236L36.6046 16.8ZM41.9984 16.6302C42.5081 16.4157 42.749 15.8291 42.5365 15.3201C42.3239 14.8111 41.7385 14.5724 41.2288 14.787L41.9984 16.6302ZM50.6213 11.0949C50.1021 11.2849 49.8335 11.8593 50.0215 12.378C50.2095 12.8966 50.7828 13.1631 51.302 12.9731L50.6213 11.0949ZM56.0152 11.3118C56.5388 11.1343 56.821 10.5664 56.6455 10.0433C56.47 9.52024 55.9033 9.24013 55.3797 9.41765L56.0152 11.3118ZM65.0139 6.41414C64.4822 6.56522 64.1719 7.1184 64.321 7.6497C64.47 8.18099 65.0218 8.48922 65.5536 8.33813L65.0139 6.41414ZM70.3742 7.03777C70.9097 6.90113 71.2348 6.3565 71.1002 5.8213C70.9657 5.28611 70.4224 4.96303 69.8869 5.09967L70.3742 7.03777ZM79.743 2.89328C79.2003 2.99698 78.8426 3.52087 78.9442 4.0634C79.0458 4.60594 79.5682 4.96169 80.111 4.85799L79.743 2.89328ZM85.0154 4.00938C85.5614 3.92509 85.9375 3.41422 85.8553 2.86833C85.7731 2.32244 85.2638 1.94824 84.7177 2.03254L85.0154 4.00938ZM94.7778 0.908058C94.2266 0.943894 93.8071 1.41978 93.8409 1.97097C93.8746 2.52217 94.3487 2.93995 94.8999 2.90412L94.7778 0.908058ZM99.8894 2.72778C100.442 2.72697 100.89 2.27853 100.892 1.72617C100.893 1.17381 100.446 0.726696 99.8941 0.72751L99.8894 2.72778ZM110.235 1.33398C109.687 1.27274 109.191 1.66811 109.127 2.21707C109.064 2.76602 109.457 3.26068 110.006 3.32192L110.235 1.33398ZM115.036 3.99463C115.581 4.07904 116.094 3.70494 116.18 3.15907C116.267 2.61319 115.895 2.10225 115.349 2.01785L115.036 3.99463ZM125.478 3.95514C124.94 3.83404 124.404 4.17275 124.281 4.71167C124.158 5.25059 124.494 5.78564 125.033 5.90675L125.478 3.95514ZM129.984 7.0947C130.519 7.23074 131.064 6.90703 131.202 6.37168C131.34 5.83634 131.018 5.29207 130.484 5.15604L129.984 7.0947ZM140.39 7.93835C139.863 7.77692 139.303 8.07429 139.14 8.60254C138.976 9.13078 139.271 9.68987 139.799 9.8513L140.39 7.93835ZM144.659 11.3954C145.183 11.5679 145.749 11.2824 145.923 10.7577C146.098 10.2329 145.814 9.66771 145.29 9.49521L144.659 11.3954ZM154.988 12.9001C154.471 12.7075 153.895 12.9712 153.7 13.4889C153.506 14.0066 153.767 14.5824 154.284 14.7749L154.988 12.9001ZM159.049 16.5996C159.562 16.8015 160.143 16.5483 160.347 16.0342C160.551 15.52 160.3 14.9396 159.787 14.7377L159.049 16.5996ZM169.28 18.6693C168.775 18.4492 168.185 18.6815 167.963 19.1881C167.741 19.6947 167.971 20.2839 168.477 20.5039L169.28 18.6693ZM173.128 22.5796C173.63 22.809 174.224 22.5875 174.455 22.085C174.686 21.5825 174.467 20.9893 173.966 20.7599L173.128 22.5796ZM183.221 25.2172C182.73 24.9675 182.127 25.1644 181.876 25.6571C181.624 26.1498 181.819 26.7517 182.31 27.0014L183.221 25.2172ZM186.832 29.3678C187.317 29.6297 187.924 29.4479 188.188 28.9616C188.452 28.4753 188.272 27.8687 187.787 27.6067L186.832 29.3678ZM196.688 32.8095C196.225 32.511 195.606 32.6458 195.305 33.1106C195.005 33.5754 195.138 34.1941 195.601 34.4926L196.688 32.8095ZM1.91415 41.2299C2.46643 40.6556 3.05015 40.0787 3.664 39.4997L2.29507 38.0468C1.65907 38.6467 1.05198 39.2466 0.475528 39.8461L1.91415 41.2299ZM11.3424 33.2477C12.6499 32.308 14.0212 31.3714 15.4499 30.4407L14.3632 28.7658C12.9106 29.712 11.5139 30.6659 10.1797 31.6248L11.3424 33.2477ZM24.0072 25.3137C25.4429 24.5189 26.914 23.7333 28.4163 22.9592L27.5058 21.1818C25.9865 21.9647 24.4977 22.7596 23.0439 23.5645L24.0072 25.3137ZM37.4193 18.6236C38.9272 17.945 40.4548 17.2799 41.9984 16.6302L41.2288 14.787C39.6702 15.443 38.1276 16.1146 36.6046 16.8L37.4193 18.6236ZM51.302 12.9731C52.8659 12.4008 54.4381 11.8465 56.0152 11.3118L55.3797 9.41765C53.7874 9.95754 52.2001 10.5171 50.6213 11.0949L51.302 12.9731ZM65.5536 8.33813C67.164 7.88054 68.7721 7.44654 70.3742 7.03777L69.8869 5.09967C68.2668 5.51302 66.6413 5.95174 65.0139 6.41414L65.5536 8.33813ZM80.111 4.85799C81.7626 4.54244 83.3988 4.25893 85.0154 4.00938L84.7177 2.03254C83.0766 2.28588 81.4169 2.57348 79.743 2.89328L80.111 4.85799ZM94.8999 2.90412C95.7327 2.84997 96.5567 2.80732 97.371 2.77645L97.3029 0.77761C96.4699 0.809182 95.628 0.852783 94.7778 0.908058L94.8999 2.90412ZM97.371 2.77645C98.1985 2.74509 99.0383 2.72904 99.8894 2.72778L99.8941 0.72751C99.0198 0.728798 98.1558 0.745287 97.3029 0.77761L97.371 2.77645ZM110.006 3.32192C111.659 3.50647 113.337 3.73176 115.036 3.99463L115.349 2.01785C113.625 1.75096 111.918 1.52186 110.235 1.33398L110.006 3.32192ZM125.033 5.90675C126.675 6.27628 128.327 6.67315 129.984 7.0947L130.484 5.15604C128.81 4.73015 127.14 4.32894 125.478 3.95514L125.033 5.90675ZM139.799 9.8513C141.423 10.3483 143.044 10.8639 144.659 11.3954L145.29 9.49521C143.663 8.95941 142.028 8.43961 140.39 7.93835L139.799 9.8513ZM154.284 14.7749C155.889 15.3726 157.478 15.9817 159.049 16.5996L159.787 14.7377C158.205 14.1155 156.604 13.5021 154.988 12.9001L154.284 14.7749ZM168.477 20.5039C170.06 21.1933 171.612 21.8862 173.128 22.5796L173.966 20.7599C172.439 20.0615 170.875 19.3635 169.28 18.6693L168.477 20.5039ZM182.31 27.0014C183.885 27.8015 185.395 28.592 186.832 29.3678L187.787 27.6067C186.335 26.8227 184.81 26.0244 183.221 25.2172L182.31 27.0014ZM195.601 34.4926C196.345 34.9717 197.042 35.4361 197.688 35.8842L198.831 34.2384C198.164 33.7762 197.449 33.2993 196.688 32.8095L195.601 34.4926Z" fill="#263238"/>
</svg>
