<svg width="24" height="24" viewBox="0 0 24 24" fill="none" xmlns="http://www.w3.org/2000/svg">
<path d="M19.7627 7.15379C19.1795 7.41175 18.561 7.58117 17.9278 7.65643C18.5953 7.25725 19.0948 6.62901 19.3334 5.88879C18.707 6.26157 18.0202 6.52282 17.3045 6.66414C16.8237 6.14972 16.1864 5.80856 15.4917 5.69368C14.797 5.57881 14.0839 5.69667 13.4631 6.02893C12.8423 6.36119 12.3487 6.88924 12.0589 7.53099C11.7692 8.17274 11.6996 8.89223 11.861 9.57761C10.5907 9.51394 9.34806 9.18384 8.21365 8.60874C7.07924 8.03364 6.07846 7.2264 5.27628 6.23942C4.99233 6.72712 4.84312 7.28153 4.84392 7.84587C4.84392 8.95351 5.40767 9.93205 6.26475 10.505C5.75754 10.489 5.26149 10.352 4.81795 10.1055V10.1452C4.8181 10.8829 5.07337 11.5978 5.54047 12.1688C6.00757 12.7397 6.65776 13.1316 7.38079 13.2779C6.90994 13.4055 6.41624 13.4243 5.93704 13.3329C6.1409 13.9679 6.53823 14.5232 7.0734 14.9211C7.60857 15.319 8.25478 15.5396 8.92156 15.552C8.25887 16.0724 7.5001 16.4572 6.68862 16.6842C5.87714 16.9112 5.02888 16.9761 4.19232 16.875C5.65265 17.8142 7.3526 18.3128 9.08885 18.3111C14.9654 18.3111 18.1791 13.4429 18.1791 9.22087C18.1791 9.08337 18.1753 8.94435 18.1692 8.80837C18.7947 8.35628 19.3346 7.79624 19.7634 7.15456L19.7627 7.15379Z" fill="#1C2436"/>
</svg>
